<svg width="642" height="479" viewBox="0 0 642 479" fill="none" xmlns="http://www.w3.org/2000/svg">
<style>
  :root {
    --svg-bg: #FCFCFC;
    --svg-fg: #1A1A1A;
    --svg-primary: #9956F6;
    --svg-muted: #F5F5F5;
    --svg-border: #E8E8E8;
    --svg-accent: #EBEBEB;
  }
  
  @media (prefers-color-scheme: dark) {
    :root {
      --svg-bg: #0F0F0F;
      --svg-fg: #F5F5F7;
      --svg-primary: #A855F7;
      --svg-muted: #202020;
      --svg-border: #2B2B2B;
      --svg-accent: #3F3F3F;
    }
  }
  
  .bg-surface { fill: var(--svg-bg); }
  .fg-text { fill: var(--svg-fg); }
  .primary { fill: var(--svg-primary); }
  .muted { fill: var(--svg-muted); }
  .border { fill: var(--svg-border); }
  .accent { fill: var(--svg-accent); }
  .neutral-light { fill: #E0E0E0; }
  .neutral-lighter { fill: #F5F5F5; }
</style>

<!-- Ground lines -->
<path d="M642 420.946H0V421.267H642V420.946Z" class="accent"/>
<path d="M577.672 441.63H535.146V441.951H577.672V441.63Z" class="accent"/>
<path d="M425.286 445.126H414.128V445.448H425.286V445.126Z" class="accent"/>
<path d="M533.862 429.7H509.222V430.022H533.862V429.7Z" class="accent"/>
<path d="M122.815 431.86H67.3586V432.181H122.815V431.86Z" class="accent"/>
<path d="M142.383 431.86H134.255V432.181H142.383V431.86Z" class="accent"/>
<path d="M289.092 437.285H168.807V437.606H289.092V437.285Z" class="accent"/>

<!-- Device frames -->
<path d="M304.308 363.611H56.3803C54.4381 363.608 52.5765 362.833 51.2044 361.457C49.8322 360.081 49.0615 358.215 49.0615 356.271V7.34036C49.0615 5.3958 49.8322 3.5307 51.2044 2.15448C52.5765 0.778266 54.4381 0.00340553 56.3803 0L304.308 0C306.252 0 308.117 0.773357 309.492 2.14994C310.867 3.52652 311.64 5.39357 311.64 7.34036V356.271C311.64 358.215 310.867 360.081 309.492 361.457C308.117 362.833 306.252 363.608 304.308 363.611Z" class="accent"/>
<path d="M582.05 363.611H334.11C332.166 363.608 330.303 362.833 328.929 361.457C327.555 360.082 326.781 358.217 326.778 356.271V7.34036C326.781 5.39462 327.555 3.52954 328.929 2.15369C330.303 0.777847 332.166 0.00339868 334.11 0L582.05 0C583.99 0.00680328 585.848 0.783162 587.218 2.15901C588.587 3.53486 589.356 5.39802 589.356 7.34036V356.271C589.356 358.213 588.587 360.076 587.218 361.452C585.848 362.828 583.99 363.604 582.05 363.611Z" class="accent"/>

<!-- Clouds -->
<path d="M262.257 52.4752C262.26 51.5021 262.034 50.5421 261.598 49.6724C261.162 48.8028 260.528 48.0479 259.747 47.4687C258.966 46.8895 258.06 46.5021 257.102 46.3379C256.144 46.1736 255.161 46.2371 254.232 46.5232C254.494 44.6562 254.354 42.7547 253.821 40.9463C253.289 39.138 252.376 37.4647 251.144 36.0388C249.911 34.6129 248.389 33.4675 246.678 32.6794C244.968 31.8914 243.108 31.4789 241.225 31.4697C240.416 31.4705 239.608 31.5437 238.811 31.6882C237.518 29.5561 235.566 27.9033 233.252 26.9793C230.937 26.0554 228.385 25.9106 225.981 26.5668C223.577 27.2229 221.452 28.6444 219.926 30.6165C218.4 32.5887 217.556 35.0044 217.523 37.4988H217.33C214.524 37.4988 211.833 38.6148 209.849 40.6014C207.864 42.5879 206.75 45.2822 206.75 48.0916C206.75 50.9009 207.864 53.5952 209.849 55.5818C211.833 57.5683 214.524 58.6843 217.33 58.6843H256.184C257.807 58.6539 259.354 57.986 260.49 56.8245C261.626 55.663 262.261 54.1009 262.257 52.4752Z" class="neutral-lighter"/>

<!-- Login screen with primary color -->
<path d="M308.173 80.4609H140.508C134.956 80.4609 130.454 84.9675 130.454 90.5266V325.675C130.454 331.234 134.956 335.741 140.508 335.741H308.173C313.725 335.741 318.226 331.234 318.226 325.675V90.5266C318.226 84.9675 313.725 80.4609 308.173 80.4609Z" class="primary"/>
<path opacity="0.9" d="M308.173 80.4609H140.508C134.956 80.4609 130.454 84.9675 130.454 90.5266V325.675C130.454 331.234 134.956 335.741 140.508 335.741H308.173C313.725 335.741 318.226 331.234 318.226 325.675V90.5266C318.226 84.9675 313.725 80.4609 308.173 80.4609Z" fill="white"/>

<!-- User avatar circle -->
<path d="M249.558 148.915C249.561 153.909 248.084 158.792 245.314 162.945C242.545 167.099 238.607 170.337 234 172.25C229.392 174.163 224.321 174.665 219.428 173.692C214.536 172.719 210.041 170.316 206.513 166.785C202.985 163.255 200.582 158.756 199.608 153.858C198.634 148.96 199.133 143.883 201.041 139.269C202.949 134.655 206.181 130.711 210.329 127.936C214.476 125.161 219.352 123.68 224.34 123.68C227.652 123.677 230.932 124.327 233.992 125.594C237.052 126.861 239.833 128.719 242.175 131.063C244.517 133.407 246.375 136.19 247.642 139.253C248.909 142.316 249.56 145.6 249.558 148.915Z" class="primary"/>
<path d="M224.34 155.574C229.326 155.574 233.367 151.528 233.367 146.537C233.367 141.546 229.326 137.5 224.34 137.5C219.355 137.5 215.314 141.546 215.314 146.537C215.314 151.528 219.355 155.574 224.34 155.574Z" fill="white"/>

<!-- Input fields -->
<path d="M275.148 184.383H173.545C167.752 184.383 163.055 189.085 163.055 194.886V194.898C163.055 200.699 167.752 205.401 173.545 205.401H275.148C280.942 205.401 285.639 200.699 285.639 194.898V194.886C285.639 189.085 280.942 184.383 275.148 184.383Z" fill="white"/>
<path d="M275.148 214.182H173.545C167.752 214.182 163.055 218.884 163.055 224.684V224.697C163.055 230.498 167.752 235.2 173.545 235.2H275.148C280.942 235.2 285.639 230.498 285.639 224.697V224.684C285.639 218.884 280.942 214.182 275.148 214.182Z" fill="white"/>

<!-- Login button -->
<path d="M275.148 255.344H173.545C167.752 255.344 163.055 260.046 163.055 265.847V265.859C163.055 271.66 167.752 276.362 173.545 276.362H275.148C280.942 276.362 285.639 271.66 285.639 265.859V265.847C285.639 260.046 280.942 255.344 275.148 255.344Z" class="primary"/>

<!-- Checkmark notification -->
<path d="M451.532 116.597H414.642C411.628 116.597 408.738 117.796 406.607 119.929C404.476 122.063 403.279 124.957 403.279 127.974V160.112C403.279 163.126 404.476 166.017 406.607 168.148C408.738 170.279 411.628 171.476 414.642 171.476H429.228L433.08 181.632L436.932 171.476H451.519C454.529 171.476 457.416 170.279 459.545 168.148C461.673 166.017 462.869 163.126 462.869 160.112V127.974C462.871 124.957 461.673 122.063 459.545 119.929C457.416 117.796 454.529 116.597 451.532 116.597Z" class="primary"/>
<path d="M446.032 156.869C453.182 149.71 453.182 138.103 446.032 130.944C438.882 123.785 427.288 123.785 420.138 130.944C412.988 138.103 412.987 149.71 420.138 156.869C427.288 164.028 438.882 164.028 446.032 156.869Z" fill="white"/>
<path d="M431.167 152.091C430.923 152.091 430.682 152.039 430.46 151.937L422.693 143.015C422.423 142.672 422.297 142.237 422.341 141.803C422.385 141.369 422.596 140.969 422.929 140.687C423.262 140.405 423.691 140.264 424.126 140.293C424.561 140.322 424.968 140.519 425.261 140.842L431.167 147.797L440.913 136.304C441.481 135.61 442.428 135.498 443.122 136.066C443.816 136.634 443.928 137.581 443.36 138.275L432.464 151.499C432.104 151.935 431.55 152.091 431.167 152.091Z" class="primary"/>

<!-- Character illustration -->
<path d="M567.156 422.013L74.8444 422.013V406.689C74.8444 403.989 76.097 401.399 78.19 399.49C80.283 397.581 82.966 396.508 85.663 396.508H556.999C559.696 396.508 562.283 397.581 564.19 399.49C566.097 401.399 567.168 403.989 567.168 406.689V422.013H567.156Z" class="neutral-light"/>
<path d="M321 479C458.494 479 569.955 472.485 569.955 464.448C569.955 456.411 458.494 449.896 321 449.896C183.506 449.896 72.0452 456.411 72.0452 464.448C72.0452 472.485 183.506 479 321 479Z" class="neutral-lighter"/>
</svg>
